<svg id="Layer_1" enable-background="new 0 0 100 100" height="512" viewBox="0 0 100 100" width="512" xmlns="http://www.w3.org/2000/svg"><g id="_x31_6.Behance"><path d="m43.9 46.1c1.4-2.2 2.2-4.7 2.1-7.5-.1-7.4-6.3-13.2-13.6-13.2h-20.7c-1 0-1.7.8-1.7 1.7v45.2c0 1 .8 1.7 1.7 1.7h23c8.5 0 15.6-6.8 15.6-15.4 0-5.1-2.5-9.7-6.4-12.5zm-24.9-11.7h13.5c2.4 0 4.4 2 4.4 4.4s-2 4.4-4.4 4.4h-13.5zm16 30.7h-16v-12.8h16c3.5 0 6.4 2.9 6.4 6.4s-2.9 6.4-6.4 6.4z"/><path d="m89.9 55.5c0-10.5-8.3-19.1-18.5-19.1s-18.5 8.6-18.5 19.1 8.3 19.1 18.5 19.1c6.2 0 12-3.2 15.4-8.5.4-.7.8-1.4 1.2-2.1.3-.5-.1-1.1-.7-1.1h-9.1c-.2 0-.4.1-.5.2-1.7 1.7-3.8 2.5-6.2 2.5-4.5 0-8.3-3.4-9.3-7.9h26c1 0 1.8-.8 1.8-1.8zm-18.5-10.1c3.3 0 6.2 1.8 7.9 4.6h-15.9c1.7-2.7 4.7-4.6 8-4.6z"/><path d="m79.1 34.2h-16.5c-.8 0-1.4-.6-1.4-1.4v-4.1c0-.8.6-1.4 1.4-1.4h16.4c.8 0 1.4.6 1.4 1.4v4.1c.1.7-.6 1.4-1.3 1.4z"/></g></svg>